<svg xmlns="http://www.w3.org/2000/svg" xmlns:xlink="http://www.w3.org/1999/xlink" width="1024" zoomAndPan="magnify" viewBox="0 0 768 383.999986" height="512" preserveAspectRatio="xMidYMid meet" version="1.0"><path fill="#ffffff" d="M 332.039062 203.933594 L 322.894531 171.59375 C 320.578125 163.394531 313.085938 157.730469 304.566406 157.730469 L 301.949219 157.730469 L 301.949219 226.28125 C 308.4375 226.28125 313.691406 221.023438 313.691406 214.539062 L 313.691406 178.507812 L 324.625 213.21875 C 325.640625 216.441406 328.632812 218.644531 332.019531 218.644531 C 335.425781 218.644531 338.429688 216.425781 339.429688 213.171875 L 350.382812 177.601562 L 350.382812 214.539062 C 350.382812 221.023438 355.640625 226.28125 362.125 226.28125 L 362.125 157.730469 L 359.511719 157.730469 C 350.988281 157.730469 343.5 163.394531 341.183594 171.59375 Z M 332.039062 203.933594 " fill-opacity="1" fill-rule="nonzero"/><path fill="#ffffff" d="M 394.429688 161.5625 L 369.675781 226.285156 L 371.941406 226.285156 C 378.921875 226.285156 385.132812 221.878906 387.4375 215.300781 C 387.4375 215.300781 412.558594 215.300781 412.558594 215.300781 C 414.867188 221.878906 421.082031 226.285156 428.054688 226.285156 L 430.320312 226.285156 L 405.566406 161.5625 C 404.683594 159.257812 402.464844 157.730469 399.996094 157.730469 C 397.523438 157.730469 395.308594 159.253906 394.425781 161.5625 Z M 391.800781 202.851562 L 399.996094 179.46875 L 408.191406 202.851562 L 391.792969 202.851562 Z M 391.800781 202.851562 " fill-opacity="1" fill-rule="nonzero"/><path fill="#ffffff" d="M 448.363281 175.761719 C 449.253906 173.859375 450.558594 172.414062 452.25 171.421875 C 453.945312 170.429688 456.007812 169.9375 458.429688 169.9375 C 460.28125 169.9375 461.957031 170.363281 463.453125 171.210938 C 464.949219 172.0625 466.222656 173.285156 467.273438 174.890625 C 467.285156 174.90625 467.296875 174.921875 467.308594 174.941406 C 469.585938 178.441406 473.351562 180.691406 477.527344 180.691406 L 483.003906 180.691406 C 482.15625 175.695312 480.621094 171.429688 478.40625 167.894531 C 476.1875 164.359375 473.382812 161.664062 469.988281 159.808594 C 466.589844 157.957031 462.742188 157.03125 458.433594 157.03125 C 453.214844 157.03125 448.75 158.035156 445.042969 160.046875 C 441.328125 162.058594 438.5 164.976562 436.554688 168.792969 C 434.605469 172.613281 433.628906 177.222656 433.628906 182.632812 L 433.628906 201.445312 C 433.628906 206.847656 434.605469 211.464844 436.554688 215.285156 C 438.5 219.105469 441.328125 222.011719 445.042969 224.007812 L 445.148438 224.0625 C 448.726562 225.992188 452.730469 227.003906 456.800781 227.003906 L 458.433594 227.003906 C 462.742188 227.003906 466.585938 226.074219 469.96875 224.222656 C 473.347656 222.371094 476.144531 219.675781 478.363281 216.140625 C 480.578125 212.605469 482.128906 208.335938 483.003906 203.34375 L 477.582031 203.34375 C 473.398438 203.34375 469.636719 205.613281 467.378906 209.144531 C 467.367188 209.160156 467.359375 209.175781 467.347656 209.191406 C 466.308594 210.796875 465.035156 212.015625 463.523438 212.847656 C 462.011719 213.679688 460.320312 214.101562 458.433594 214.101562 C 456.011719 214.101562 453.953125 213.605469 452.257812 212.617188 C 450.558594 211.628906 449.261719 210.191406 448.367188 208.304688 C 447.472656 206.417969 447.023438 204.140625 447.023438 201.46875 L 447.023438 182.652344 C 447.023438 179.984375 447.46875 177.695312 448.367188 175.792969 Z M 448.363281 175.761719 " fill-opacity="1" fill-rule="nonzero"/><path fill="#ffffff" d="M 531.386719 186.066406 L 506.773438 186.066406 L 506.773438 170.648438 C 506.773438 163.515625 500.988281 157.730469 493.847656 157.730469 L 493.847656 226.28125 C 500.988281 226.28125 506.773438 220.496094 506.773438 213.359375 L 506.773438 198.511719 L 531.386719 198.511719 L 531.386719 213.359375 C 531.386719 220.496094 537.175781 226.28125 544.3125 226.28125 L 544.3125 157.730469 C 537.175781 157.730469 531.386719 163.515625 531.386719 170.648438 Z M 531.386719 186.066406 " fill-opacity="1" fill-rule="nonzero"/><path fill="#ffffff" d="M 558.460938 226.28125 C 565.855469 226.28125 571.851562 220.285156 571.851562 212.890625 L 571.851562 157.730469 C 564.453125 157.730469 558.460938 163.726562 558.460938 171.117188 Z M 558.460938 226.28125 " fill-opacity="1" fill-rule="nonzero"/><path fill="#ffffff" d="M 626.183594 207.917969 L 607.972656 170.425781 C 604.199219 162.660156 596.324219 157.730469 587.6875 157.730469 L 586.003906 157.730469 L 586.003906 226.234375 C 592.828125 226.234375 598.359375 220.707031 598.359375 213.882812 L 598.359375 176.820312 L 616.457031 213.636719 C 620.246094 221.351562 628.097656 226.242188 636.699219 226.242188 L 638.546875 226.242188 L 638.546875 157.738281 C 631.722656 157.738281 626.191406 163.265625 626.191406 170.085938 L 626.191406 207.925781 Z M 626.183594 207.917969 " fill-opacity="1" fill-rule="nonzero"/><path fill="#ffffff" d="M 699.566406 157.730469 C 699.566406 157.730469 666.554688 157.730469 666.554688 157.730469 L 653.632812 157.730469 L 653.632812 226.28125 L 687.117188 226.28125 C 693.996094 226.28125 699.566406 220.707031 699.566406 213.835938 C 699.566406 213.835938 666.554688 213.835938 666.554688 213.835938 L 666.554688 198.46875 L 681.925781 198.46875 C 688.804688 198.46875 694.375 192.894531 694.375 186.023438 C 694.375 186.023438 666.546875 186.023438 666.546875 186.023438 L 666.546875 170.179688 L 687.109375 170.179688 C 693.988281 170.179688 699.558594 164.605469 699.558594 157.738281 Z M 699.566406 157.730469 " fill-opacity="1" fill-rule="nonzero"/><path fill="#ffffff" d="M 303.980469 312.5 C 289.066406 313.179688 274.3125 309.5625 261.265625 299.863281 C 254.753906 295.023438 249.792969 288.730469 244.644531 282.597656 C 231.515625 266.972656 218.367188 251.363281 205.261719 235.71875 C 193.8125 222.054688 182.425781 208.34375 170.972656 194.683594 C 157.023438 178.054688 143.011719 161.476562 129.0625 144.84375 C 116.03125 129.308594 103.0625 113.71875 90.023438 98.179688 C 83.878906 90.859375 77.648438 83.617188 71.457031 76.335938 C 70.789062 75.546875 70.195312 74.699219 69.566406 73.882812 C 68.445312 72.421875 68.613281 71.527344 70.648438 71.511719 C 84.859375 71.398438 99.101562 70.710938 112.59375 76.796875 C 122.871094 81.441406 131.058594 88.464844 138.191406 97.039062 C 153.800781 115.808594 169.582031 134.445312 185.257812 153.15625 C 200.773438 171.671875 216.214844 190.242188 231.746094 208.746094 C 248.527344 228.738281 265.359375 248.683594 282.164062 268.652344 C 293.390625 281.992188 304.625 295.332031 315.792969 308.710938 C 316.554688 309.617188 318.0625 310.640625 317.292969 311.964844 C 316.710938 312.96875 315.144531 312.480469 314.011719 312.496094 C 311.039062 312.539062 308.054688 312.507812 303.980469 312.507812 " fill-opacity="1" fill-rule="nonzero"/><path fill="#ffffff" d="M 181.984375 312.582031 C 160.382812 312.582031 138.78125 312.59375 117.175781 312.582031 C 105.132812 312.582031 97.265625 306.183594 95.347656 294.398438 C 94.496094 289.214844 96.257812 284.417969 99.417969 280.273438 C 112.886719 262.621094 126.410156 245.015625 139.914062 227.398438 C 145.71875 219.816406 151.582031 212.28125 157.292969 204.617188 C 159.207031 202.046875 160.484375 201.152344 162.914062 204.261719 C 167.992188 210.769531 173.371094 217.050781 178.785156 223.28125 C 180.292969 225.011719 179.433594 225.972656 178.40625 227.195312 C 172.285156 234.527344 166.195312 241.882812 160.042969 249.195312 C 151.574219 259.269531 143.046875 269.308594 134.558594 279.375 C 134.078125 279.9375 133.1875 280.589844 133.878906 281.3125 C 134.292969 281.75 135.289062 281.75 136.03125 281.753906 C 142.757812 281.78125 149.488281 281.773438 156.210938 281.773438 C 178.460938 281.773438 200.710938 281.832031 222.960938 281.710938 C 226.320312 281.695312 228.632812 282.476562 230.835938 285.277344 C 237.21875 293.382812 244.023438 301.160156 250.632812 309.09375 C 251.332031 309.929688 252.894531 310.664062 252.289062 311.867188 C 251.625 313.191406 249.953125 312.550781 248.742188 312.550781 C 226.492188 312.582031 204.242188 312.578125 181.992188 312.578125 " fill-opacity="1" fill-rule="nonzero"/><path fill="#ffffff" d="M 243.105469 102.199219 L 216.683594 102.199219 C 198.566406 102.199219 180.441406 102.15625 162.324219 102.246094 C 159.640625 102.257812 157.871094 101.496094 156.113281 99.304688 C 149.398438 90.953125 142.398438 82.835938 135.527344 74.609375 C 134.90625 73.859375 133.5625 73.21875 134.089844 72.121094 C 134.683594 70.871094 136.167969 71.429688 137.253906 71.421875 C 149.421875 71.382812 161.582031 71.394531 173.75 71.394531 C 204.550781 71.394531 235.359375 71.394531 266.160156 71.394531 C 278.066406 71.394531 285.710938 77.601562 287.824219 89.296875 C 289.144531 96.617188 285.390625 102.210938 280.886719 107.421875 C 266.179688 124.417969 251.503906 141.433594 236.789062 158.414062 C 232.214844 163.691406 227.484375 168.820312 222.996094 174.164062 C 221.476562 175.964844 220.390625 175.933594 219 174.285156 C 213.429688 167.667969 207.882812 161.027344 202.273438 154.445312 C 200.867188 152.789062 201.757812 151.671875 202.8125 150.410156 C 209.023438 142.96875 215.191406 135.503906 221.40625 128.078125 C 228.4375 119.664062 235.503906 111.269531 243.109375 102.207031 " fill-opacity="1" fill-rule="nonzero"/></svg>