<svg xmlns="http://www.w3.org/2000/svg" xmlns:xlink="http://www.w3.org/1999/xlink" width="512" zoomAndPan="magnify" viewBox="0 0 384 383.999986" height="512" preserveAspectRatio="xMidYMid meet" version="1.0"><path fill="#ffffff" d="M 335.605469 350.40625 C 316.65625 351.265625 297.90625 346.667969 281.335938 334.335938 C 273.0625 328.183594 266.753906 320.1875 260.210938 312.386719 C 243.53125 292.515625 226.828125 272.675781 210.171875 252.785156 C 195.628906 235.414062 181.160156 217.980469 166.605469 200.617188 C 148.878906 179.472656 131.082031 158.394531 113.355469 137.25 C 96.796875 117.496094 80.320312 97.679688 63.753906 77.925781 C 55.945312 68.617188 48.023438 59.410156 40.160156 50.152344 C 39.3125 49.152344 38.554688 48.074219 37.757812 47.03125 C 36.339844 45.171875 36.542969 44.039062 39.128906 44.019531 C 57.191406 43.882812 75.289062 42.996094 92.425781 50.742188 C 105.480469 56.644531 115.886719 65.570312 124.949219 76.476562 C 144.777344 100.335938 164.828125 124.03125 184.75 147.816406 C 204.457031 171.355469 224.082031 194.960938 243.816406 218.488281 C 265.128906 243.910156 286.523438 269.265625 307.878906 294.652344 C 322.140625 311.609375 336.414062 328.5625 350.609375 345.582031 C 351.574219 346.730469 353.488281 348.03125 352.515625 349.71875 C 351.773438 350.992188 349.785156 350.371094 348.339844 350.390625 C 344.558594 350.441406 340.773438 350.40625 335.597656 350.40625 " fill-opacity="1" fill-rule="nonzero"/><path fill="#ffffff" d="M 180.601562 350.507812 C 153.148438 350.507812 125.707031 350.519531 98.253906 350.503906 C 82.945312 350.496094 72.957031 342.363281 70.511719 327.382812 C 69.433594 320.796875 71.667969 314.691406 75.679688 309.425781 C 92.789062 286.980469 109.976562 264.605469 127.132812 242.207031 C 134.511719 232.570312 141.964844 222.980469 149.214844 213.242188 C 151.644531 209.972656 153.269531 208.84375 156.355469 212.796875 C 162.816406 221.066406 169.640625 229.050781 176.527344 236.972656 C 178.441406 239.171875 177.34375 240.390625 176.042969 241.953125 C 168.265625 251.277344 160.523438 260.628906 152.710938 269.921875 C 141.949219 282.730469 131.117188 295.496094 120.328125 308.285156 C 119.726562 308.996094 118.589844 309.832031 119.46875 310.75 C 120 311.304688 121.265625 311.304688 122.199219 311.308594 C 130.746094 311.347656 139.296875 311.332031 147.84375 311.332031 C 176.113281 311.332031 204.378906 311.40625 232.65625 311.25 C 236.917969 311.230469 239.855469 312.21875 242.667969 315.785156 C 250.777344 326.085938 259.425781 335.972656 267.824219 346.058594 C 268.710938 347.128906 270.695312 348.058594 269.925781 349.585938 C 269.089844 351.265625 266.964844 350.453125 265.417969 350.457031 C 237.148438 350.496094 208.878906 350.488281 180.605469 350.488281 " fill-opacity="1" fill-rule="nonzero"/><path fill="#ffffff" d="M 258.257812 83.046875 L 224.6875 83.046875 C 201.667969 83.046875 178.640625 82.996094 155.617188 83.097656 C 152.214844 83.113281 149.960938 82.148438 147.730469 79.359375 C 139.203125 68.738281 130.304688 58.414062 121.574219 47.957031 C 120.78125 47.007812 119.085938 46.1875 119.738281 44.796875 C 120.496094 43.203125 122.378906 43.910156 123.765625 43.90625 C 139.222656 43.859375 154.679688 43.875 170.136719 43.875 C 209.273438 43.875 248.414062 43.871094 287.550781 43.882812 C 302.679688 43.886719 312.390625 51.769531 315.074219 66.640625 C 316.746094 75.941406 311.984375 83.058594 306.257812 89.683594 C 287.578125 111.285156 268.921875 132.914062 250.222656 154.503906 C 244.414062 161.210938 238.402344 167.738281 232.703125 174.527344 C 230.777344 176.820312 229.394531 176.78125 227.628906 174.679688 C 220.554688 166.265625 213.503906 157.828125 206.371094 149.457031 C 204.589844 147.351562 205.714844 145.933594 207.058594 144.328125 C 214.945312 134.871094 222.785156 125.382812 230.679688 115.933594 C 239.613281 105.230469 248.585938 94.566406 258.257812 83.039062 " fill-opacity="1" fill-rule="nonzero"/></svg>